<svg xmlns="http://www.w3.org/2000/svg" viewBox="0 0 24 24" width="24" height="24" fill="none" role="img" aria-labelledby="t"><title id="t">Settings</title><circle cx="12" cy="12" r="3.2" stroke="#173A63" stroke-width="1.8" stroke-linecap="round" stroke-linejoin="round"/><path d="m12 3.7 1 1.7c.6.2 1.1.4 1.6.7l1.9-.4 1.4 2.5-1.2 1.4c.1.5.2 1 .2 1.6s-.1 1.1-.2 1.6l1.2 1.4-1.4 2.5-1.9-.4c-.5.3-1 .5-1.6.7l-1 1.7h-2.9l-1-1.7c-.6-.2-1.1-.4-1.6-.7l-1.9.4-1.4-2.5 1.2-1.4c-.1-.5-.2-1-.2-1.6s.1-1.1.2-1.6L4.2 8.2l1.4-2.5 1.9.4c.5-.3 1-.5 1.6-.7l1-1.7z" stroke="#173A63" stroke-width="1.8" stroke-linecap="round" stroke-linejoin="round"/><circle cx="12" cy="12" r="1.2" fill="#E7A72B"/></svg>
